<svg width="512" height="512" viewBox="0 0 512 512" fill="none" xmlns="http://www.w3.org/2000/svg">
<circle cx="256" cy="256" r="256" fill="#222222"/>
<path d="M78.8008 283.715L43.2656 267.43V263.348L78.8008 247.105V252.434L52.418 264.164L47.9922 265.367V265.625L52.418 266.828L78.8008 278.387V283.715ZM101.961 289.902C97.5495 289.902 94.0977 288.728 91.6055 286.379C89.1133 284.03 87.8672 280.85 87.8672 276.84C87.8672 272.543 89.6862 269.077 93.3242 266.441C96.9909 263.777 101.975 262.445 108.277 262.445H117.902V257.117C117.902 253.737 116.9 251.03 114.895 248.996C112.889 246.962 109.896 245.945 105.914 245.945C103.651 245.945 101.617 246.318 99.8125 247.062C98.0365 247.779 96.4896 248.695 95.1719 249.812L94.7422 256.902H90.4883V247.191C92.4935 245.444 94.7708 244.083 97.3203 243.109C99.8698 242.135 102.763 241.648 106 241.648C111.471 241.648 115.682 243.023 118.633 245.773C121.583 248.523 123.059 252.333 123.059 257.203V279.633C123.059 280.549 123.087 281.466 123.145 282.383C123.202 283.271 123.302 284.159 123.445 285.047L128.988 285.262V289H118.848C118.533 287.31 118.303 285.949 118.16 284.918C118.017 283.887 117.931 282.727 117.902 281.438C116.212 283.93 113.978 285.964 111.199 287.539C108.421 289.115 105.341 289.902 101.961 289.902ZM102.562 285.391C105.742 285.391 108.75 284.56 111.586 282.898C114.451 281.208 116.556 278.974 117.902 276.195V266.398H108.234C103.479 266.398 99.7552 267.43 97.0625 269.492C94.3698 271.526 93.0234 274.033 93.0234 277.012C93.0234 279.504 93.8685 281.523 95.5586 283.07C97.2773 284.617 99.612 285.391 102.562 285.391ZM153.91 289.902C148.353 289.902 143.999 287.826 140.848 283.672C137.725 279.518 136.164 273.975 136.164 267.043V266.141C136.164 261.185 136.866 256.874 138.27 253.207C139.702 249.54 141.736 246.704 144.371 244.699C147.035 242.665 150.243 241.648 153.996 241.648C157.233 241.648 160.04 242.336 162.418 243.711C164.824 245.086 166.801 247.005 168.348 249.469V226.309L161.344 225.75V221.969H173.504V284.703L180.508 285.262V289H168.906L168.52 282.426C167.001 284.803 165.01 286.651 162.547 287.969C160.112 289.258 157.233 289.902 153.91 289.902ZM154.855 285.477C158.207 285.477 161 284.717 163.234 283.199C165.469 281.681 167.173 279.618 168.348 277.012V255.312C167.23 252.62 165.598 250.414 163.449 248.695C161.301 246.948 158.465 246.074 154.941 246.074C150.444 246.074 147.049 247.936 144.758 251.66C142.495 255.355 141.363 260.182 141.363 266.141V267.043C141.363 272.629 142.48 277.098 144.715 280.449C146.978 283.801 150.358 285.477 154.855 285.477ZM205.988 289.902C200.431 289.902 196.077 287.826 192.926 283.672C189.803 279.518 188.242 273.975 188.242 267.043V266.141C188.242 261.185 188.944 256.874 190.348 253.207C191.78 249.54 193.814 246.704 196.449 244.699C199.113 242.665 202.322 241.648 206.074 241.648C209.311 241.648 212.118 242.336 214.496 243.711C216.902 245.086 218.879 247.005 220.426 249.469V226.309L213.422 225.75V221.969H225.582V284.703L232.586 285.262V289H220.984L220.598 282.426C219.079 284.803 217.089 286.651 214.625 287.969C212.19 289.258 209.311 289.902 205.988 289.902ZM206.934 285.477C210.285 285.477 213.078 284.717 215.312 283.199C217.547 281.681 219.251 279.618 220.426 277.012V255.312C219.309 252.62 217.676 250.414 215.527 248.695C213.379 246.948 210.543 246.074 207.02 246.074C202.522 246.074 199.128 247.936 196.836 251.66C194.573 255.355 193.441 260.182 193.441 266.141V267.043C193.441 272.629 194.559 277.098 196.793 280.449C199.056 283.801 202.436 285.477 206.934 285.477ZM255.445 289V285.262L262.449 284.703V230.648H244.875L244.316 240.188H240.105V226.438H289.906V240.188H285.738L285.137 230.648H267.605V284.703L274.609 285.262V289H255.445ZM314.312 289L297.426 246.59L292.484 246.289V242.508H308.855V246.289L302.754 246.676L314.785 277.355L316.504 282.469H316.762L318.609 277.355L330.254 246.676L324.066 246.289V242.508H340.438V246.289L335.41 246.59L318.953 289H314.312ZM367.895 289.902C364.514 289.902 361.578 289.229 359.086 287.883C356.594 286.536 354.589 284.66 353.07 282.254L352.555 289H348.129V226.309L341.125 225.75V221.969H353.285V249.598C354.803 247.105 356.766 245.158 359.172 243.754C361.607 242.35 364.486 241.648 367.809 241.648C371.533 241.648 374.727 242.665 377.391 244.699C380.055 246.704 382.089 249.54 383.492 253.207C384.924 256.874 385.641 261.185 385.641 266.141V267.043C385.641 273.975 384.065 279.518 380.914 283.672C377.763 287.826 373.423 289.902 367.895 289.902ZM366.906 285.477C371.375 285.477 374.741 283.801 377.004 280.449C379.296 277.098 380.441 272.629 380.441 267.043V266.141C380.441 260.182 379.296 255.355 377.004 251.66C374.712 247.936 371.318 246.074 366.82 246.074C363.182 246.074 360.275 246.991 358.098 248.824C355.949 250.629 354.345 252.921 353.285 255.699V276.668C354.374 279.361 356.064 281.509 358.355 283.113C360.647 284.689 363.497 285.477 366.906 285.477ZM389.508 294.371L415.633 226.438H420.273L394.191 294.371H389.508ZM429.168 284.102V278.859L456.281 267.043L460.707 265.84V265.582L456.281 264.336L429.168 252.691V247.449L465.477 263.691V267.816L429.168 284.102Z" fill="#FFAC00"/>
</svg>
